<svg width="9" height="18" viewBox="0 0 9 18" fill="none" xmlns="http://www.w3.org/2000/svg">
<path d="M7.13498 17.1666C6.96069 17.1672 6.78848 17.1288 6.631 17.0541C6.47353 16.9794 6.33479 16.8703 6.22499 16.735L0.589988 9.73498C0.418392 9.52622 0.324585 9.26437 0.324585 8.99414C0.324585 8.72391 0.418392 8.46206 0.589988 8.25331L6.42332 1.25331C6.62135 1.01506 6.90591 0.865228 7.21441 0.836785C7.5229 0.808342 7.83007 0.903614 8.06832 1.10164C8.30657 1.29967 8.4564 1.58423 8.48484 1.89273C8.51328 2.20123 8.41801 2.50839 8.21998 2.74664L3.00499 8.99998L8.04498 15.2533C8.18765 15.4246 8.27827 15.6331 8.30613 15.8542C8.33399 16.0754 8.29792 16.2999 8.20219 16.5011C8.10646 16.7024 7.95507 16.8721 7.76594 16.99C7.57681 17.108 7.35786 17.1692 7.13498 17.1666Z" fill="#FDF7F7"/>
</svg>
