<svg width="25" height="25" viewBox="0 0 25 25" fill="none" xmlns="http://www.w3.org/2000/svg">
<path d="M23.9945 17.5145H8.06313L8.86304 15.7027L22.1539 15.6759C22.6033 15.6759 22.9886 15.3189 23.0688 14.825L24.9094 3.36798C24.9576 3.0675 24.8853 2.75809 24.7088 2.52306C24.6215 2.40739 24.5126 2.31421 24.3898 2.24999C24.2669 2.18578 24.1329 2.15206 23.9971 2.15117L7.08932 2.08869L6.94486 1.33302C6.8539 0.85106 6.46331 0.5 6.01921 0.5H1.88589C1.63543 0.5 1.39522 0.610646 1.21811 0.807598C1.04101 1.00455 0.941513 1.27167 0.941513 1.5502C0.941513 1.82874 1.04101 2.09586 1.21811 2.29281C1.39522 2.48976 1.63543 2.60041 1.88589 2.60041H5.25408L5.88544 5.93845L7.43979 14.3074L5.43867 17.9399C5.33475 18.0959 5.27216 18.2811 5.25797 18.4746C5.24379 18.6681 5.27858 18.8621 5.35841 19.0348C5.51893 19.3888 5.84264 19.6119 6.20113 19.6119H7.88121C7.52304 20.141 7.32957 20.7854 7.3301 21.4476C7.3301 23.1315 8.56073 24.5 10.0749 24.5C11.5892 24.5 12.8198 23.1315 12.8198 21.4476C12.8198 20.7841 12.6218 20.1385 12.2687 19.6119H16.5786C16.2204 20.141 16.0269 20.7854 16.0275 21.4476C16.0275 23.1315 17.2581 24.5 18.7723 24.5C20.2865 24.5 21.5171 23.1315 21.5171 21.4476C21.5171 20.7841 21.3192 20.1385 20.966 19.6119H23.9971C24.5161 19.6119 24.9415 19.1419 24.9415 18.5617C24.94 18.2835 24.8395 18.0172 24.6621 17.821C24.4847 17.6248 24.2447 17.5147 23.9945 17.5145ZM7.48259 4.15935L22.8869 4.21588L21.378 13.6112L9.27771 13.635L7.48259 4.15935ZM10.0749 22.3877C9.60944 22.3877 9.22955 21.9652 9.22955 21.4476C9.22955 20.9299 9.60944 20.5074 10.0749 20.5074C10.5404 20.5074 10.9203 20.9299 10.9203 21.4476C10.9203 21.6969 10.8313 21.936 10.6727 22.1123C10.5142 22.2886 10.2992 22.3877 10.0749 22.3877ZM18.7723 22.3877C18.3068 22.3877 17.9269 21.9652 17.9269 21.4476C17.9269 20.9299 18.3068 20.5074 18.7723 20.5074C19.2378 20.5074 19.6177 20.9299 19.6177 21.4476C19.6177 21.6969 19.5286 21.936 19.3701 22.1123C19.2115 22.2886 18.9965 22.3877 18.7723 22.3877Z" fill="#644F4F"/>
</svg>
